<svg width="1440" height="125" viewBox="0 0 1440 125" fill="none" xmlns="http://www.w3.org/2000/svg">
<rect width="1440" height="125" fill="url(#paint0_linear)"/>
<mask id="mask0" mask-type="alpha" maskUnits="userSpaceOnUse" x="0" y="0" width="1440" height="125">
<rect width="1440" height="125" fill="white"/>
</mask>
<g mask="url(#mask0)">
<mask id="mask1" mask-type="alpha" maskUnits="userSpaceOnUse" x="0" y="0" width="1440" height="672">
<rect width="1440" height="672" fill="white"/>
</mask>
<g mask="url(#mask1)">
<g opacity="0.5">
<path opacity="0.8" d="M376.112 50.4842C376.018 54.1344 376.054 59.0402 376.329 65.6087C376.605 72.0383 377.054 76.7799 377.587 80.2743C377.613 80.4282 377.612 80.5671 377.639 80.721C378.045 84.1132 380.802 86.5568 383.935 87.0007C384.062 87.0336 384.176 87.0242 384.318 87.0298C384.46 87.0355 384.559 87.0533 384.701 87.059C385.85 87.1463 387.059 86.9164 388.2 86.3366C391.467 84.688 395.792 82.3451 401.475 79.0141C407.187 75.6288 411.232 72.9274 414.078 70.7758C414.15 70.7092 414.164 70.682 414.192 70.697C414.292 70.6454 414.307 70.6182 414.364 70.5788C416.982 68.5849 417.626 65.1928 416.419 62.4217C416.364 62.2528 416.266 62.0961 416.197 61.9544C416.155 61.8972 416.127 61.8127 416.085 61.7555C415.514 60.7186 414.657 59.8093 413.557 59.0848C412.118 58.1802 410.425 57.1404 408.435 55.9777C406.926 55.0703 405.26 54.115 403.355 53.0667C402.324 52.484 401.223 51.8984 400.08 51.2556C394.517 48.2282 390.18 46.1665 386.901 44.7719C386.632 44.664 386.378 44.5289 386.109 44.421C383.198 43.1522 380.096 43.8765 378.146 45.8413C376.914 47.0011 376.159 48.6244 376.112 50.4842Z" fill="#02E8FD"/>
<path opacity="0.8" d="M876.234 96.9262L873.379 89.1373C873.05 88.2751 872.491 87.5271 871.772 86.9786L865.122 81.8909C862.604 79.9712 862.593 76.2539 865.071 74.3521L871.665 69.3503C872.389 68.7987 872.957 68.0389 873.263 67.1943L876.039 59.441C877.088 56.5086 880.692 55.382 883.294 57.1403L890.237 61.8197C890.995 62.3491 891.894 62.6412 892.818 62.6582L901.185 62.9535C904.353 63.0701 906.578 66.0905 905.703 69.0794L903.391 76.9835C903.143 77.8469 903.126 78.7858 903.417 79.6671L905.841 87.5991C906.756 90.6032 904.534 93.595 901.368 93.6681L892.998 93.8754C892.064 93.8868 891.173 94.1637 890.429 94.6773L883.541 99.3005C880.917 101.06 877.322 99.8921 876.234 96.9262Z" fill="#02E8FD"/>
<path opacity="0.8" d="M109.313 49.3154L101.727 45.9585C100.878 45.5962 99.9524 45.4783 99.0581 45.6148L90.7788 46.8642C87.6487 47.3419 84.9675 44.7672 85.3204 41.6641L86.3031 33.446C86.4094 32.5419 86.2571 31.6059 85.8624 30.7987L82.2133 23.4161C80.8325 20.6245 82.5257 17.2495 85.5983 16.5989L93.7874 14.8551C94.6946 14.6778 95.5291 14.2341 96.1833 13.5811L102.208 7.76719C104.493 5.56935 108.211 6.0673 109.753 8.77301L113.833 15.9266C114.281 16.7051 114.945 17.3692 115.781 17.7723L123.171 21.5387C125.967 22.9671 126.576 26.644 124.429 28.9718L118.764 35.1371C118.124 35.8164 117.704 36.65 117.556 37.542L116.097 45.7083C115.541 48.818 112.203 50.5929 109.313 49.3154Z" fill="#02E8FD"/>
<path opacity="0.8" d="M1236.68 41.544C1227.01 41.544 1219.17 49.381 1219.17 59.0485C1219.17 68.7159 1227.01 76.5529 1236.68 76.5529C1246.35 76.5529 1254.18 68.7159 1254.18 59.0485C1254.18 49.381 1246.35 41.544 1236.68 41.544Z" fill="#02E8FD"/>
</g>
</g>
</g>
<defs>
<linearGradient id="paint0_linear" x1="-168.054" y1="38.544" x2="-158.844" y2="210.592" gradientUnits="userSpaceOnUse">
<stop stop-color="#00C4FF"/>
<stop offset="1" stop-color="#009DFF"/>
</linearGradient>
</defs>
</svg>
