<svg xmlns="http://www.w3.org/2000/svg" width="931" height="274" viewBox="0 0 931 274"><g><g clip-path="url(#clip-3AA94AEA-FFFE-4FA0-B8C1-D25291584507)"><g opacity=".7" transform="rotate(180 477.5 146)"><g opacity=".56" transform="rotate(33 769.5 286)"><path fill="#02e8fd" d="M201.68 13.394c-1.04-2.082-2.53-4.832-4.65-8.446-2.081-3.535-3.753-6.069-5.1-7.876-.06-.079-.102-.157-.163-.236-1.244-1.787-3.528-2.337-5.425-1.65-.082.02-.143.06-.224.099-.082.039-.143.059-.225.098a4.219 4.219 0 0 0-1.754 1.453c-1.346 1.906-3.08 4.518-5.282 8.093-2.203 3.614-3.672 6.344-4.63 8.406-.02.059-.02.079-.041.079-.04.059-.04.078-.061.117-.877 1.906-.225 4.007 1.285 5.205.081.079.183.138.265.197.04.02.081.059.122.078.632.413 1.387.668 2.223.747 1.081.078 2.346.157 3.814.216 1.122.059 2.346.098 3.733.118.755.02 1.55.02 2.386.039 4.039.04 7.098-.098 9.362-.295.184-.02.367-.02.55-.039 2.02-.157 3.55-1.493 4.06-3.182.346-1.021.285-2.16-.245-3.221z"/></g><g opacity=".56" transform="rotate(33 659 80.5)"><path fill="#02e8fd" d="M307.994 217.818c-.76-1.523-1.85-3.535-3.401-6.178-1.522-2.586-2.745-4.44-3.73-5.761-.045-.058-.075-.115-.12-.173-.91-1.307-2.58-1.71-3.968-1.206-.06.014-.104.043-.164.071-.06.03-.104.043-.164.072-.492.216-.94.575-1.283 1.063-.985 1.394-2.253 3.305-3.864 5.92-1.611 2.643-2.686 4.64-3.387 6.149-.015.043-.015.057-.03.057-.03.043-.03.058-.044.086-.642 1.394-.164 2.931.94 3.808.06.057.134.1.194.143.03.015.06.043.09.058a3.565 3.565 0 0 0 1.625.546c.79.057 1.716.115 2.79.158.82.043 1.716.072 2.73.086.552.014 1.134.014 1.746.029 2.954.028 5.192-.072 6.848-.216.134-.014.268-.014.402-.029 1.477-.115 2.596-1.092 2.97-2.327a3.038 3.038 0 0 0-.18-2.356z"/></g><g opacity=".56" transform="rotate(50 454 2)"><path fill="#02e8fd" d="M512.105 295.588c-.766-1.534-1.863-3.56-3.426-6.224-1.533-2.605-2.766-4.472-3.758-5.804-.045-.057-.075-.115-.12-.173-.917-1.317-2.6-1.722-3.998-1.216-.06.015-.105.043-.165.072-.06.03-.105.044-.165.073a3.109 3.109 0 0 0-1.293 1.07c-.992 1.405-2.27 3.33-3.892 5.964-1.624 2.663-2.706 4.675-3.412 6.194-.015.044-.015.058-.03.058-.03.044-.03.058-.045.087-.646 1.404-.165 2.953.947 3.835.06.058.135.102.195.145.03.015.06.044.09.058a3.591 3.591 0 0 0 1.638.55 85.84 85.84 0 0 0 2.81.16 71.71 71.71 0 0 0 2.751.086c.556.015 1.142.015 1.759.029 2.975.029 5.23-.072 6.898-.217.135-.015.27-.015.406-.029 1.488-.116 2.615-1.1 2.99-2.345a3.06 3.06 0 0 0-.18-2.373z"/></g><g opacity=".56" transform="rotate(-107 870.5 51.5)"><path fill="#02e8fd" d="M92.765 250.208c-.766-1.534-1.863-3.56-3.426-6.224-1.533-2.605-2.766-4.472-3.758-5.804-.045-.057-.075-.115-.12-.173-.917-1.317-2.6-1.722-3.998-1.216-.06.015-.105.043-.165.072-.06.03-.105.044-.165.073a3.109 3.109 0 0 0-1.293 1.07c-.992 1.405-2.27 3.33-3.892 5.964-1.624 2.663-2.706 4.675-3.412 6.194-.015.044-.015.058-.03.058-.03.044-.03.058-.045.087-.646 1.404-.165 2.953.947 3.835.06.058.135.102.195.145.03.015.06.044.09.058a3.591 3.591 0 0 0 1.638.55 85.84 85.84 0 0 0 2.81.16 71.71 71.71 0 0 0 2.751.086c.556.015 1.142.015 1.759.029 2.975.029 5.23-.072 6.898-.217.135-.015.27-.015.406-.029 1.488-.116 2.615-1.1 2.99-2.345a3.06 3.06 0 0 0-.18-2.373z"/></g><g opacity=".56" transform="rotate(-28 598 21.5)"><path fill="#02e8fd" d="M358.041 259.963l3.39 4.316c.384.475.889.831 1.454 1.03l5.226 1.84c1.978.694 2.745 3.03 1.575 4.733l-3.128 4.494a3.175 3.175 0 0 0-.566 1.683l-.161 5.445c-.06 2.06-2.099 3.505-4.097 2.93l-5.327-1.524a3.084 3.084 0 0 0-1.797 0l-5.327 1.525c-2.018.574-4.036-.872-4.097-2.93l-.161-5.446a3.012 3.012 0 0 0-.566-1.683l-3.148-4.494c-1.19-1.703-.403-4.04 1.574-4.732l5.227-1.842a3.048 3.048 0 0 0 1.453-1.03l3.39-4.315c1.292-1.644 3.795-1.644 5.086 0z"/></g><g opacity=".56" transform="rotate(-73 920.5 202.5)"><path fill="#02e8fd" d="M34.546 84.825l2.407 3.064c.272.338.63.59 1.032.731l3.71 1.308c1.405.492 1.95 2.15 1.118 3.36l-2.22 3.19a2.254 2.254 0 0 0-.402 1.195l-.114 3.866c-.043 1.462-1.49 2.488-2.909 2.08l-3.782-1.082a2.19 2.19 0 0 0-1.276 0l-3.782 1.082c-1.433.408-2.866-.618-2.909-2.08l-.114-3.866a2.138 2.138 0 0 0-.401-1.195l-2.236-3.19c-.845-1.21-.286-2.868 1.118-3.36l3.71-1.308c.416-.14.775-.393 1.032-.73l2.408-3.065a2.3 2.3 0 0 1 3.61 0z"/></g><g opacity=".56"><path fill="#02e8fd" d="M346.02 111.27a7.557 7.557 0 0 0 7.56-7.555 7.557 7.557 0 0 0-7.56-7.555 7.557 7.557 0 0 0-7.56 7.555 7.557 7.557 0 0 0 7.56 7.555z"/></g><g opacity=".56"><path fill="#02e8fd" d="M89.85 162.85a7.557 7.557 0 0 0 7.56-7.555 7.557 7.557 0 0 0-7.56-7.555 7.557 7.557 0 0 0-7.56 7.555 7.557 7.557 0 0 0 7.56 7.555z"/></g><g opacity=".56"><path fill="#02e8fd" d="M32.74 288.35a7.557 7.557 0 0 0 7.56-7.555 7.557 7.557 0 0 0-7.56-7.555 7.557 7.557 0 0 0-7.56 7.555 7.557 7.557 0 0 0 7.56 7.555z"/></g></g><g opacity=".6" transform="rotate(-15 5 110.5)"><path fill="#02e8fd" d="M13.645 114.188c-.766-1.534-1.863-3.56-3.426-6.224-1.533-2.605-2.766-4.472-3.758-5.804-.045-.057-.075-.115-.12-.173-.917-1.317-2.6-1.722-3.998-1.216-.06.015-.105.043-.165.072-.06.03-.105.044-.165.073a3.109 3.109 0 0 0-1.293 1.07c-.992 1.405-2.27 3.33-3.892 5.964-1.624 2.663-2.706 4.675-3.412 6.194-.015.044-.015.058-.03.058-.03.044-.03.058-.045.087-.646 1.404-.165 2.953.947 3.835.06.058.135.102.195.145.03.015.06.044.09.058a3.591 3.591 0 0 0 1.638.55 85.84 85.84 0 0 0 2.81.16 71.71 71.71 0 0 0 2.751.086c.556.015 1.142.015 1.759.029 2.975.029 5.23-.072 6.898-.217.135-.015.27-.015.406-.029 1.488-.116 2.615-1.1 2.99-2.345a3.06 3.06 0 0 0-.18-2.373z"/></g><g opacity=".6" transform="rotate(28 158 36.5)"><path fill="#02e8fd" d="M170.845 39.698c-.766-1.534-1.863-3.56-3.426-6.224-1.533-2.605-2.766-4.472-3.758-5.804-.045-.057-.075-.115-.12-.173-.917-1.317-2.6-1.722-3.998-1.216-.06.015-.105.043-.165.072-.06.03-.105.044-.165.073a3.109 3.109 0 0 0-1.293 1.07c-.992 1.405-2.27 3.33-3.892 5.964-1.624 2.663-2.706 4.675-3.412 6.194-.015.044-.015.058-.03.058-.03.044-.03.058-.045.087-.646 1.404-.165 2.953.947 3.835.06.058.135.102.195.145.03.015.06.044.09.058a3.591 3.591 0 0 0 1.638.55 85.84 85.84 0 0 0 2.81.16 71.71 71.71 0 0 0 2.751.086c.556.015 1.142.015 1.759.029 2.975.029 5.23-.072 6.898-.217.135-.015.27-.015.406-.029 1.488-.116 2.615-1.1 2.99-2.345a3.06 3.06 0 0 0-.18-2.373z"/></g><g opacity=".6" transform="rotate(-28 21 25.5)"><path fill="#02e8fd" d="M23.103 13.873l2.759 3.513c.312.387.723.677 1.183.838l4.253 1.499c1.61.564 2.234 2.465 1.282 3.85l-2.546 3.659c-.28.403-.444.886-.46 1.37l-.131 4.43c-.05 1.677-1.709 2.853-3.335 2.386l-4.336-1.241a2.51 2.51 0 0 0-1.461 0l-4.337 1.24c-1.642.468-3.284-.708-3.334-2.384L12.51 28.6a2.451 2.451 0 0 0-.46-1.37l-2.562-3.657c-.97-1.386-.329-3.287 1.28-3.851l4.255-1.5a2.48 2.48 0 0 0 1.182-.837l2.76-3.513a2.636 2.636 0 0 1 4.139 0z"/></g><g opacity=".6" transform="rotate(-24 150.5 289)"><path fill="#02e8fd" d="M154.341 270.73l4.4 5.602a4.223 4.223 0 0 0 1.886 1.336l6.784 2.39c2.567.899 3.562 3.931 2.043 6.141l-4.06 5.833a4.12 4.12 0 0 0-.733 2.185l-.21 7.066c-.078 2.673-2.724 4.549-5.317 3.803l-6.914-1.978a4.003 4.003 0 0 0-2.331 0l-6.915 1.978c-2.619.746-5.238-1.13-5.317-3.803l-.21-7.066a3.909 3.909 0 0 0-.733-2.185l-4.086-5.833c-1.545-2.21-.523-5.242 2.043-6.141l6.784-2.39a3.956 3.956 0 0 0 1.886-1.336l4.4-5.602c1.676-2.133 4.924-2.133 6.6 0z"/></g><g opacity=".6" transform="rotate(14 552 248.5)"><path fill="#02e8fd" d="M547.73 230.73l-4.4 5.602a4.223 4.223 0 0 1-1.887 1.336l-6.783 2.39c-2.567.899-3.562 3.931-2.043 6.141l4.06 5.833a4.12 4.12 0 0 1 .733 2.185l.21 7.066c.078 2.673 2.723 4.549 5.316 3.803l6.915-1.978a4.003 4.003 0 0 1 2.331 0l6.915 1.979c2.619.745 5.238-1.131 5.317-3.804l.21-7.066c.025-.771.261-1.542.732-2.185l4.086-5.833c1.546-2.21.524-5.242-2.043-6.141l-6.783-2.39a3.956 3.956 0 0 1-1.886-1.336l-4.4-5.602c-1.677-2.133-4.924-2.133-6.6 0z"/></g><g opacity=".6"><path fill="#02e8fd" d="M17.66 248.47a7.557 7.557 0 0 0 7.56-7.555 7.557 7.557 0 0 0-7.56-7.555 7.557 7.557 0 0 0-7.56 7.555 7.557 7.557 0 0 0 7.56 7.555z"/></g></g></g></svg>