<svg width="83" height="83" viewBox="0 0 83 83" fill="none" xmlns="http://www.w3.org/2000/svg">
<g filter="url(#filter0_d)">
<mask id="mask0" mask-type="alpha" maskUnits="userSpaceOnUse" x="4" y="2" width="75" height="75">
<path fill-rule="evenodd" clip-rule="evenodd" d="M41.5 2C11.5 2 4 9.5 4 39.5C4 69.5 11.5 77 41.5 77C71.5 77 79 69.5 79 39.5C79 9.5 71.5 2 41.5 2Z" fill="white"/>
</mask>
<g mask="url(#mask0)">
<rect x="-14.75" y="-16.75" width="112.5" height="112.5" fill="#2196F3"/>
<path d="M77.9587 -16.75V95.75" stroke="white" stroke-opacity="0.3" stroke-width="0.4"/>
<path d="M67.5417 -16.75V95.75" stroke="white" stroke-opacity="0.6" stroke-width="0.4"/>
<path d="M57.1247 -16.75V95.75" stroke="white" stroke-opacity="0.6" stroke-width="0.4"/>
<path d="M46.7087 -16.75V95.75" stroke="white" stroke-opacity="0.6" stroke-width="0.4"/>
<path d="M36.2917 -16.75V95.75" stroke="white" stroke-opacity="0.6" stroke-width="0.4"/>
<path d="M25.8747 -16.75V95.75" stroke="white" stroke-opacity="0.6" stroke-width="0.4"/>
<path d="M15.4587 -16.75V95.75" stroke="white" stroke-opacity="0.6" stroke-width="0.4"/>
<path d="M5.04167 -16.75V95.75" stroke="white" stroke-opacity="0.3" stroke-width="0.4"/>
<path d="M-14.75 75.9583H97.75" stroke="white" stroke-opacity="0.3" stroke-width="0.4"/>
<path d="M-14.75 65.5416H97.75" stroke="white" stroke-opacity="0.6" stroke-width="0.4"/>
<path d="M-14.75 55.125L97.75 55.125" stroke="white" stroke-opacity="0.6" stroke-width="0.4"/>
<path d="M-14.75 44.7083L97.75 44.7083" stroke="white" stroke-opacity="0.6" stroke-width="0.4"/>
<path d="M-14.75 34.2917L97.75 34.2917" stroke="white" stroke-opacity="0.6" stroke-width="0.4"/>
<path d="M-14.75 23.875L97.75 23.875" stroke="white" stroke-opacity="0.6" stroke-width="0.4"/>
<path d="M-14.75 13.4583L97.75 13.4583" stroke="white" stroke-opacity="0.6" stroke-width="0.4"/>
<path d="M-14.75 3.04168L97.75 3.04168" stroke="white" stroke-opacity="0.3" stroke-width="0.4"/>
<path fill-rule="evenodd" clip-rule="evenodd" d="M64.3804 95.75L97.7497 95.75L97.7496 74.1979L58.7115 34.493C58.7115 34.493 58.4279 42.3955 50.8131 45.1538C44.777 47.3402 18.583 49.9167 18.583 49.9167L64.3804 95.75Z" fill="url(#paint0_radial)"/>
<path fill-rule="evenodd" clip-rule="evenodd" d="M54.9823 31.1905L59.9476 26.1607C60.7115 25.3869 60.7115 24.1875 59.9476 23.4137C59.1837 22.6399 57.9997 22.6399 57.2358 23.4137L51.583 29.1399C48.5656 27.5923 45.1281 26.7024 41.4997 26.7024C37.833 26.7024 34.3955 27.5923 31.34 29.1399L25.649 23.4137C24.8851 22.6399 23.7011 22.6399 22.9372 23.4137C22.1733 24.1875 22.1733 25.3869 22.9372 26.1607L27.9406 31.2292C22.2879 35.4464 18.583 42.2173 18.583 49.9167H64.4163C64.4163 42.2173 60.7115 35.4077 54.9823 31.1905ZM50.8096 42.5371C51.9961 42.5371 52.958 41.5898 52.958 40.4212C52.958 39.2526 51.9961 38.3053 50.8096 38.3053C49.623 38.3053 48.6611 39.2526 48.6611 40.4212C48.6611 41.5898 49.623 42.5371 50.8096 42.5371ZM34.3382 40.4212C34.3382 41.5898 33.3763 42.5371 32.1898 42.5371C31.0032 42.5371 30.0413 41.5898 30.0413 40.4212C30.0413 39.2526 31.0032 38.3053 32.1898 38.3053C33.3763 38.3053 34.3382 39.2526 34.3382 40.4212Z" fill="white"/>
<rect x="-14.75" y="-16.75" width="112.5" height="112.5" fill="url(#paint1_radial)"/>
<rect x="-14.75" y="-16.75" width="112.5" height="112.5" fill="url(#paint2_linear)"/>
<path opacity="0.8" fill-rule="evenodd" clip-rule="evenodd" d="M43.4914 40.0148C44.9095 40.1917 45.9053 39.196 45.7347 37.8152C45.5666 36.4536 44.3181 35.1883 42.9308 34.9751C41.5202 34.759 40.4662 35.7031 40.604 37.101C40.7437 38.5181 42.0499 39.8351 43.4914 40.0148ZM43.9167 23.117C43.7719 21.9469 42.613 20.7597 41.3147 20.4541C39.9966 20.1437 39.0038 20.8496 39.1217 22.0451C39.2411 23.2569 40.4498 24.4889 41.7952 24.7728C43.1208 25.0528 44.0634 24.3017 43.9167 23.117ZM36.0308 21.3545C35.811 18.6706 38.096 17.1582 41.0297 17.8906C43.8674 18.5994 46.3898 21.1895 46.7439 23.7486C47.0399 25.8849 45.771 27.4744 43.5785 27.635L44.1525 32.4582C46.5574 33.4931 48.4137 35.8121 48.749 38.2352C49.1728 41.2944 47.028 43.5874 43.8515 43.2504C40.5527 42.9007 37.5514 39.8856 37.2848 36.6388C37.0744 34.0718 38.6511 32.1846 41.0636 31.9355L40.5577 27.0407C38.0831 25.9355 36.2148 23.5988 36.0308 21.3545ZM52.7636 35.0478C52.5631 34.87 52.3716 34.6809 52.1901 34.482C52.0692 34.3498 51.9528 34.2133 51.8409 34.0728C51.7857 34.0026 51.7305 33.9318 51.6777 33.8596C51.0406 32.998 50.5964 32.0186 50.4457 31.0303C50.3094 30.1333 50.4332 29.3509 50.758 28.7354C50.9043 28.4579 51.0913 28.2147 51.3127 28.0099C51.4455 27.8876 51.5907 27.779 51.7474 27.6852C51.7991 27.6538 51.8518 27.6243 51.9071 27.5963C52.5557 27.2637 53.3764 27.1655 54.2996 27.361C55.2128 27.554 56.1027 28.0079 56.8821 28.6263C56.9473 28.6774 57.0114 28.73 57.0741 28.7835C57.2636 28.9446 57.4467 29.1156 57.6208 29.2949C57.9107 29.5935 58.1779 29.9162 58.4151 30.2561C58.9379 31.0047 59.3194 31.8418 59.488 32.6974C59.6736 33.6391 59.5766 34.4751 59.2533 35.1362C59.2264 35.1913 59.197 35.2458 59.1672 35.2988C59.106 35.4044 59.0394 35.5056 58.9662 35.6014C58.8563 35.7453 58.733 35.8765 58.5967 35.9944C58.5056 36.0735 58.4091 36.1462 58.3072 36.2125C58.2052 36.2793 58.0973 36.3392 57.9844 36.3927C57.8715 36.4463 57.7531 36.4925 57.6302 36.5318C57.5685 36.5519 57.5054 36.5696 57.4412 36.5858C57.2487 36.6339 57.0453 36.6659 56.8319 36.6791C56.5469 36.6973 56.2449 36.683 55.9276 36.6339C55.6088 36.5843 55.2909 36.5018 54.9775 36.3898C54.7413 36.3053 54.5075 36.2041 54.2787 36.0882C54.2021 36.0494 54.1265 36.0091 54.0509 35.9669C53.9002 35.8829 53.7509 35.792 53.6047 35.6957C53.4585 35.599 53.3152 35.4963 53.1749 35.3882C53.0342 35.2802 52.8969 35.1667 52.7636 35.0478ZM61.3725 45.1727C60.2972 43.5419 58.6214 42.3306 56.8904 42.1189C55.1197 41.9033 53.715 42.7825 53.1146 44.2998C53.0887 44.3652 53.0644 44.4315 53.0415 44.4988C53.0211 44.5597 53.0017 44.6216 52.9833 44.684C52.7923 45.3491 52.743 46.1134 52.8699 46.9435C53.3439 50.0592 56.0389 52.7785 58.787 52.9278C61.4422 53.0722 63.0473 50.741 62.4673 47.7997C62.3121 47.0152 62.0172 46.2622 61.6217 45.5755C61.5839 45.5107 61.5456 45.4463 61.5064 45.3825C61.4631 45.3117 61.4183 45.2415 61.3725 45.1727ZM30.5402 23.174C30.6203 23.2349 30.6999 23.2973 30.7775 23.3606C31.0107 23.5507 31.2311 23.7516 31.4385 23.9614C31.7842 24.3111 32.0921 24.6869 32.3557 25.0803C32.9357 25.9478 33.3003 26.9081 33.3635 27.8817C33.4336 28.955 33.1282 29.8986 32.5403 30.6358C32.4905 30.6982 32.4393 30.7587 32.3856 30.8176C32.2786 30.936 32.1637 31.0485 32.0419 31.1546C31.8578 31.3137 31.6569 31.4586 31.4415 31.5878C31.2968 31.6743 31.1455 31.7533 30.9879 31.8255C30.8297 31.8973 30.665 31.9621 30.4954 32.0186C30.3243 32.0756 30.1472 32.1242 29.9652 32.1645C29.8737 32.1846 29.7812 32.2028 29.6871 32.219C29.4046 32.2666 29.1102 32.2951 28.8052 32.303C28.3974 32.3128 27.9711 32.2853 27.5319 32.217C27.0897 32.1483 26.655 32.0417 26.2322 31.9012C25.9143 31.7951 25.6034 31.6703 25.3015 31.5289C25.2005 31.4812 25.1011 31.4321 25.0026 31.381C24.8051 31.2783 24.6116 31.1688 24.4241 31.0529C24.2366 30.936 24.053 30.8127 23.8759 30.6835C23.6984 30.5538 23.5273 30.4182 23.3621 30.2768C23.1144 30.0646 22.8811 29.8406 22.6643 29.6053C22.5195 29.4486 22.3827 29.2875 22.2534 29.1225C22.1887 29.0399 22.1266 28.9564 22.0659 28.8719C21.3412 27.8591 20.9194 26.721 20.9194 25.5878C20.9194 24.5606 21.2665 23.678 21.8624 22.9962C22.1305 22.6897 22.4489 22.4239 22.8085 22.2034C23.0229 22.0717 23.2522 21.9568 23.4939 21.8585C23.5745 21.8261 23.6561 21.7952 23.7397 21.7667C24.7295 21.4248 25.9108 21.3565 27.1723 21.6237C28.4178 21.887 29.5742 22.4411 30.5402 23.174ZM33.4854 42.2263C32.2956 40.3101 30.1682 38.8616 27.7468 38.5664C25.2608 38.2633 23.0528 39.2432 21.8556 40.9978C21.8043 41.073 21.7546 41.1501 21.7063 41.2282C21.6636 41.2989 21.6218 41.3707 21.582 41.4433C21.1592 42.2175 20.9189 43.1134 20.9189 44.0924C20.9189 47.7799 24.2366 51.0478 28.1771 51.262C31.9584 51.4678 34.7255 48.7505 34.5006 45.3042C34.4409 44.3876 34.1763 43.5064 33.7555 42.6998C33.7162 42.6232 33.6744 42.5481 33.6322 42.4729C33.5849 42.3899 33.5362 42.3079 33.4854 42.2263ZM49.7672 52.2306C49.8742 52.405 49.9746 52.5848 50.0682 52.768C50.1144 52.8594 50.1597 52.9522 50.203 53.046C50.3323 53.328 50.4452 53.6188 50.5402 53.9169C50.667 54.3153 50.7615 54.7279 50.8192 55.1503C50.9068 55.7864 50.9048 56.4014 50.8232 56.981C50.4621 59.5436 48.5337 61.4564 45.8775 61.4564C44.4116 61.4564 42.9876 60.8723 41.8182 59.8973C41.7341 59.8276 41.652 59.7558 41.571 59.6822C40.1922 58.4281 39.2411 56.6401 39.079 54.7004C38.9974 53.7224 39.1277 52.8137 39.4247 52.015C39.447 51.956 39.4699 51.8971 39.4938 51.8391C39.555 51.6908 39.6206 51.5459 39.6928 51.4064C39.9106 50.9879 40.1787 50.6096 40.4896 50.2781C40.6751 50.0806 40.8751 49.8999 41.0895 49.7378C41.1606 49.6837 41.2332 49.6317 41.3073 49.5816C41.6028 49.3826 41.9211 49.2176 42.2584 49.0879C42.3424 49.056 42.4275 49.026 42.514 48.9985C42.7727 48.916 43.0413 48.8541 43.3188 48.8148C43.6869 48.7622 44.0709 48.749 44.4669 48.7784C44.6633 48.7932 44.8593 48.8182 45.0528 48.8526C45.2458 48.887 45.4373 48.9312 45.6258 48.9842C45.9078 49.0638 46.1849 49.1635 46.4545 49.2824C46.7748 49.4234 47.0847 49.5919 47.3827 49.7825C47.501 49.8581 47.6189 49.9367 47.7333 50.0197C47.8766 50.1238 48.0164 50.2344 48.1526 50.3493C48.2486 50.4304 48.3436 50.5134 48.4357 50.5998C48.5789 50.7329 48.7177 50.8724 48.851 51.0173C48.9191 51.0915 48.9863 51.1667 49.052 51.2438C49.1828 51.398 49.3081 51.5572 49.4275 51.7217C49.5474 51.8868 49.6603 52.0562 49.7672 52.2306Z" fill="url(#paint3_linear)"/>
</g>
</g>
<defs>
<filter id="filter0_d" x="0" y="0" width="83" height="83" filterUnits="userSpaceOnUse" color-interpolation-filters="sRGB">
<feFlood flood-opacity="0" result="BackgroundImageFix"/>
<feColorMatrix in="SourceAlpha" type="matrix" values="0 0 0 0 0 0 0 0 0 0 0 0 0 0 0 0 0 0 127 0"/>
<feOffset dy="2"/>
<feGaussianBlur stdDeviation="2"/>
<feColorMatrix type="matrix" values="0 0 0 0 0 0 0 0 0 0 0 0 0 0 0 0 0 0 0.2 0"/>
<feBlend mode="normal" in2="BackgroundImageFix" result="effect1_dropShadow"/>
<feBlend mode="normal" in="SourceGraphic" in2="effect1_dropShadow" result="shape"/>
</filter>
<radialGradient id="paint0_radial" cx="0" cy="0" r="1" gradientUnits="userSpaceOnUse" gradientTransform="translate(37.4087 41.5085) rotate(41.9529) scale(81.1368 81.5865)">
<stop stop-opacity="0.15"/>
<stop offset="0.141511" stop-opacity="0.15"/>
<stop offset="0.643402" stop-opacity="0.02"/>
<stop offset="1" stop-opacity="0.01"/>
</radialGradient>
<radialGradient id="paint1_radial" cx="0" cy="0" r="1" gradientUnits="userSpaceOnUse" gradientTransform="translate(16.23 14.1713) rotate(45.036) scale(74.113)">
<stop stop-color="white" stop-opacity="0.1"/>
<stop offset="1" stop-color="white" stop-opacity="0.01"/>
</radialGradient>
<linearGradient id="paint2_linear" x1="-14.75" y1="-16.75" x2="-14.75" y2="95.75" gradientUnits="userSpaceOnUse">
<stop stop-color="#FCFCFC"/>
<stop offset="1" stop-color="#EFEFEF"/>
</linearGradient>
<linearGradient id="paint3_linear" x1="2.58839" y1="30.5337" x2="26.7635" y2="61.2336" gradientUnits="userSpaceOnUse">
<stop stop-color="#00E4F9"/>
<stop offset="1" stop-color="#009DFF"/>
</linearGradient>
</defs>
</svg>
